<mxfile host="Electron" agent="Mozilla/5.0 (Windows NT 10.0; Win64; x64) AppleWebKit/537.36 (KHTML, like Gecko) draw.io/28.0.6 Chrome/138.0.7204.100 Electron/37.2.3 Safari/537.36" version="28.0.6">
  <diagram name="Page-1" id="yE2sApqzcWKGD8Q7n9fV">
    <mxGraphModel dx="1213" dy="722" grid="1" gridSize="10" guides="1" tooltips="1" connect="1" arrows="1" fold="1" page="1" pageScale="1" pageWidth="850" pageHeight="1100" math="0" shadow="0">
      <root>
        <mxCell id="0" />
        <mxCell id="1" parent="0" />
        <mxCell id="j4TLrGQaL5G3EZcK_6Gp-1" value="High Level Architecture" style="text;strokeColor=none;fillColor=none;html=1;fontSize=24;fontStyle=1;verticalAlign=middle;align=center;" vertex="1" parent="1">
          <mxGeometry x="100" y="50" width="100" height="40" as="geometry" />
        </mxCell>
        <mxCell id="j4TLrGQaL5G3EZcK_6Gp-2" value="" style="rounded=0;whiteSpace=wrap;html=1;fillColor=none;strokeColor=default;strokeWidth=3;dashed=1;" vertex="1" parent="1">
          <mxGeometry x="80" y="160" width="150" height="620" as="geometry" />
        </mxCell>
        <mxCell id="j4TLrGQaL5G3EZcK_6Gp-3" value="Sources" style="rounded=0;whiteSpace=wrap;html=1;strokeColor=none;fontSize=24;" vertex="1" parent="1">
          <mxGeometry x="104.08" y="140" width="100" height="30" as="geometry" />
        </mxCell>
        <mxCell id="j4TLrGQaL5G3EZcK_6Gp-4" value="" style="rounded=0;whiteSpace=wrap;html=1;fillColor=none;strokeColor=default;strokeWidth=3;dashed=1;" vertex="1" parent="1">
          <mxGeometry x="250" y="160" width="680" height="620" as="geometry" />
        </mxCell>
        <mxCell id="j4TLrGQaL5G3EZcK_6Gp-5" value="Data Warehouse" style="rounded=0;whiteSpace=wrap;html=1;strokeColor=none;fontSize=24;" vertex="1" parent="1">
          <mxGeometry x="493.5" y="140" width="205" height="30" as="geometry" />
        </mxCell>
        <mxCell id="j4TLrGQaL5G3EZcK_6Gp-6" value="" style="rounded=0;whiteSpace=wrap;html=1;fillColor=none;strokeColor=default;strokeWidth=3;dashed=1;" vertex="1" parent="1">
          <mxGeometry x="970" y="160" width="150" height="620" as="geometry" />
        </mxCell>
        <mxCell id="j4TLrGQaL5G3EZcK_6Gp-7" value="Consume" style="rounded=0;whiteSpace=wrap;html=1;strokeColor=none;fontSize=24;" vertex="1" parent="1">
          <mxGeometry x="995.6" y="140" width="100" height="30" as="geometry" />
        </mxCell>
        <mxCell id="j4TLrGQaL5G3EZcK_6Gp-8" value="Bronze Layer" style="rounded=0;whiteSpace=wrap;html=1;fillColor=#a0522d;strokeColor=#6D1F00;fontColor=#ffffff;fontSize=20;fontStyle=1" vertex="1" parent="1">
          <mxGeometry x="280" y="190" width="170" height="30" as="geometry" />
        </mxCell>
        <mxCell id="j4TLrGQaL5G3EZcK_6Gp-9" value="" style="rounded=0;whiteSpace=wrap;html=1;fillColor=none;strokeColor=#6D1F00;fontColor=#ffffff;fontSize=20;strokeWidth=2;" vertex="1" parent="1">
          <mxGeometry x="280" y="230" width="170" height="530" as="geometry" />
        </mxCell>
        <mxCell id="j4TLrGQaL5G3EZcK_6Gp-10" value="Silver Layer" style="rounded=0;whiteSpace=wrap;html=1;fillColor=#647687;strokeColor=#314354;fontColor=#ffffff;fontSize=20;fontStyle=1" vertex="1" parent="1">
          <mxGeometry x="502" y="190" width="168" height="30" as="geometry" />
        </mxCell>
        <mxCell id="j4TLrGQaL5G3EZcK_6Gp-11" value="" style="rounded=0;whiteSpace=wrap;html=1;fillColor=none;strokeColor=#314354;fontColor=#ffffff;fontSize=20;strokeWidth=2;" vertex="1" parent="1">
          <mxGeometry x="502" y="230" width="170" height="530" as="geometry" />
        </mxCell>
        <mxCell id="j4TLrGQaL5G3EZcK_6Gp-12" value="Gold Layer" style="rounded=0;whiteSpace=wrap;html=1;fillColor=#e3c800;strokeColor=#B09500;fontColor=#000000;fontSize=20;fontStyle=1" vertex="1" parent="1">
          <mxGeometry x="726" y="190" width="170" height="30" as="geometry" />
        </mxCell>
        <mxCell id="j4TLrGQaL5G3EZcK_6Gp-13" value="" style="rounded=0;whiteSpace=wrap;html=1;fillColor=none;strokeColor=#B09500;fontColor=#000000;fontSize=20;strokeWidth=2;" vertex="1" parent="1">
          <mxGeometry x="726" y="230" width="170" height="530" as="geometry" />
        </mxCell>
        <mxCell id="j4TLrGQaL5G3EZcK_6Gp-14" value="CRM" style="image;aspect=fixed;html=1;points=[];align=center;fontSize=12;image=img/lib/azure2/general/Folder_Blank.svg;fontStyle=1" vertex="1" parent="1">
          <mxGeometry x="130.35" y="260" width="49.29" height="40" as="geometry" />
        </mxCell>
        <mxCell id="j4TLrGQaL5G3EZcK_6Gp-16" value="" style="image;aspect=fixed;html=1;points=[];align=center;fontSize=12;image=img/lib/azure2/general/File.svg;" vertex="1" parent="1">
          <mxGeometry x="164.99" y="280" width="17.89" height="22.04" as="geometry" />
        </mxCell>
        <mxCell id="j4TLrGQaL5G3EZcK_6Gp-18" value="ERP" style="image;aspect=fixed;html=1;points=[];align=center;fontSize=12;image=img/lib/azure2/general/Folder_Blank.svg;fontStyle=1" vertex="1" parent="1">
          <mxGeometry x="127.11" y="360" width="49.29" height="40" as="geometry" />
        </mxCell>
        <mxCell id="j4TLrGQaL5G3EZcK_6Gp-19" value="" style="image;aspect=fixed;html=1;points=[];align=center;fontSize=12;image=img/lib/azure2/general/File.svg;" vertex="1" parent="1">
          <mxGeometry x="161.75" y="380" width="17.89" height="22.04" as="geometry" />
        </mxCell>
        <mxCell id="j4TLrGQaL5G3EZcK_6Gp-21" value="" style="endArrow=none;html=1;rounded=0;exitX=0.167;exitY=0.756;exitDx=0;exitDy=0;exitPerimeter=0;fillColor=#647687;strokeColor=#314354;strokeWidth=3;" edge="1" parent="1">
          <mxGeometry width="50" height="50" relative="1" as="geometry">
            <mxPoint x="109.19000000000005" y="450.19999999999993" as="sourcePoint" />
            <mxPoint x="200.82" y="450" as="targetPoint" />
          </mxGeometry>
        </mxCell>
        <mxCell id="j4TLrGQaL5G3EZcK_6Gp-22" value="&lt;font&gt;&lt;b&gt;Object Type:&lt;/b&gt; CSV Files&lt;/font&gt;&lt;div&gt;&lt;br&gt;&lt;/div&gt;&lt;div&gt;&lt;b&gt;Interface:&lt;/b&gt; Files in Folder&lt;/div&gt;" style="text;html=1;align=left;verticalAlign=middle;whiteSpace=wrap;rounded=0;fontSize=12;" vertex="1" parent="1">
          <mxGeometry x="85" y="490" width="145" height="30" as="geometry" />
        </mxCell>
        <mxCell id="j4TLrGQaL5G3EZcK_6Gp-23" value="" style="html=1;verticalLabelPosition=bottom;align=center;labelBackgroundColor=#ffffff;verticalAlign=top;strokeWidth=2;strokeColor=#6D1F00;shadow=0;dashed=0;shape=mxgraph.ios7.icons.data;fillColor=#a0522d;fontColor=#ffffff;" vertex="1" parent="1">
          <mxGeometry x="330" y="320" width="52" height="60" as="geometry" />
        </mxCell>
        <mxCell id="j4TLrGQaL5G3EZcK_6Gp-24" value="" style="html=1;verticalLabelPosition=bottom;align=center;labelBackgroundColor=#ffffff;verticalAlign=top;strokeWidth=2;strokeColor=#314354;shadow=0;dashed=0;shape=mxgraph.ios7.icons.data;fillColor=#647687;fontColor=#ffffff;" vertex="1" parent="1">
          <mxGeometry x="560" y="320" width="52" height="60" as="geometry" />
        </mxCell>
        <mxCell id="j4TLrGQaL5G3EZcK_6Gp-25" value="" style="html=1;verticalLabelPosition=bottom;align=center;labelBackgroundColor=#ffffff;verticalAlign=top;strokeWidth=2;strokeColor=#B09500;shadow=0;dashed=0;shape=mxgraph.ios7.icons.data;fillColor=#e3c800;fontColor=#000000;" vertex="1" parent="1">
          <mxGeometry x="785" y="320" width="52" height="60" as="geometry" />
        </mxCell>
        <mxCell id="j4TLrGQaL5G3EZcK_6Gp-26" value="" style="shape=singleArrow;whiteSpace=wrap;html=1;fillColor=#f5f5f5;gradientColor=#b3b3b3;strokeColor=#666666;" vertex="1" parent="1">
          <mxGeometry x="190" y="330" width="110" height="40" as="geometry" />
        </mxCell>
        <mxCell id="j4TLrGQaL5G3EZcK_6Gp-30" style="edgeStyle=orthogonalEdgeStyle;rounded=0;orthogonalLoop=1;jettySize=auto;html=1;exitX=0.5;exitY=1;exitDx=0;exitDy=0;" edge="1" parent="1" source="j4TLrGQaL5G3EZcK_6Gp-10" target="j4TLrGQaL5G3EZcK_6Gp-10">
          <mxGeometry relative="1" as="geometry" />
        </mxCell>
        <mxCell id="j4TLrGQaL5G3EZcK_6Gp-31" value="" style="shape=singleArrow;whiteSpace=wrap;html=1;fillColor=#f5f5f5;gradientColor=#b3b3b3;strokeColor=#666666;" vertex="1" parent="1">
          <mxGeometry x="425" y="330" width="110" height="40" as="geometry" />
        </mxCell>
        <mxCell id="j4TLrGQaL5G3EZcK_6Gp-33" value="" style="shape=singleArrow;whiteSpace=wrap;html=1;fillColor=#f5f5f5;gradientColor=#b3b3b3;strokeColor=#666666;" vertex="1" parent="1">
          <mxGeometry x="640" y="330" width="110" height="40" as="geometry" />
        </mxCell>
        <mxCell id="j4TLrGQaL5G3EZcK_6Gp-34" value="" style="shape=singleArrow;whiteSpace=wrap;html=1;fillColor=#f5f5f5;gradientColor=#b3b3b3;strokeColor=#666666;" vertex="1" parent="1">
          <mxGeometry x="880" y="330" width="110" height="40" as="geometry" />
        </mxCell>
        <mxCell id="j4TLrGQaL5G3EZcK_6Gp-35" value="Raw Data" style="text;html=1;align=center;verticalAlign=middle;whiteSpace=wrap;rounded=0;fontSize=15;" vertex="1" parent="1">
          <mxGeometry x="314" y="395" width="84" height="30" as="geometry" />
        </mxCell>
        <mxCell id="j4TLrGQaL5G3EZcK_6Gp-36" value="Cleaned, Standardized Data" style="text;html=1;align=center;verticalAlign=middle;whiteSpace=wrap;rounded=0;fontSize=15;" vertex="1" parent="1">
          <mxGeometry x="507" y="402.04" width="160" height="30" as="geometry" />
        </mxCell>
        <mxCell id="j4TLrGQaL5G3EZcK_6Gp-37" value="Business-Ready Data" style="text;html=1;align=center;verticalAlign=middle;whiteSpace=wrap;rounded=0;fontSize=15;" vertex="1" parent="1">
          <mxGeometry x="731" y="402.04" width="160" height="30" as="geometry" />
        </mxCell>
        <mxCell id="j4TLrGQaL5G3EZcK_6Gp-38" value="" style="endArrow=none;html=1;rounded=0;exitX=0.167;exitY=0.756;exitDx=0;exitDy=0;exitPerimeter=0;fillColor=#647687;strokeColor=#314354;strokeWidth=3;" edge="1" parent="1">
          <mxGeometry width="50" height="50" relative="1" as="geometry">
            <mxPoint x="310.18" y="450.19999999999993" as="sourcePoint" />
            <mxPoint x="401.80999999999995" y="450" as="targetPoint" />
          </mxGeometry>
        </mxCell>
        <mxCell id="j4TLrGQaL5G3EZcK_6Gp-39" value="" style="endArrow=none;html=1;rounded=0;exitX=0.167;exitY=0.756;exitDx=0;exitDy=0;exitPerimeter=0;fillColor=#647687;strokeColor=#314354;strokeWidth=3;" edge="1" parent="1">
          <mxGeometry width="50" height="50" relative="1" as="geometry">
            <mxPoint x="540.19" y="450.19999999999993" as="sourcePoint" />
            <mxPoint x="631.8199999999999" y="450" as="targetPoint" />
          </mxGeometry>
        </mxCell>
        <mxCell id="j4TLrGQaL5G3EZcK_6Gp-40" value="" style="endArrow=none;html=1;rounded=0;exitX=0.167;exitY=0.756;exitDx=0;exitDy=0;exitPerimeter=0;fillColor=#647687;strokeColor=#314354;strokeWidth=3;" edge="1" parent="1">
          <mxGeometry width="50" height="50" relative="1" as="geometry">
            <mxPoint x="765.1800000000001" y="450.19999999999993" as="sourcePoint" />
            <mxPoint x="856.81" y="450" as="targetPoint" />
          </mxGeometry>
        </mxCell>
        <mxCell id="j4TLrGQaL5G3EZcK_6Gp-41" value="&lt;font&gt;&lt;b&gt;Object Type:&lt;/b&gt; Tables&lt;/font&gt;&lt;div&gt;&lt;br&gt;&lt;/div&gt;&lt;div&gt;&lt;b&gt;Load:&lt;/b&gt; &lt;br&gt;&lt;ul&gt;&lt;li&gt;Batch Processing&lt;/li&gt;&lt;li&gt;Full Load&lt;/li&gt;&lt;li&gt;Truncate &amp;amp; Insert&lt;/li&gt;&lt;/ul&gt;&lt;div&gt;No &lt;b&gt;Transformations&lt;/b&gt;&lt;/div&gt;&lt;div&gt;&lt;br&gt;&lt;/div&gt;&lt;div&gt;&lt;b&gt;Data Model:&lt;/b&gt; None (as-is)&lt;/div&gt;&lt;/div&gt;" style="text;html=1;align=left;verticalAlign=middle;whiteSpace=wrap;rounded=0;fontSize=12;" vertex="1" parent="1">
          <mxGeometry x="290" y="530" width="150" height="30" as="geometry" />
        </mxCell>
        <mxCell id="j4TLrGQaL5G3EZcK_6Gp-42" value="&lt;font&gt;&lt;b&gt;Object Type:&lt;/b&gt; Tables&lt;/font&gt;&lt;div&gt;&lt;br&gt;&lt;/div&gt;&lt;div&gt;&lt;b&gt;Load:&lt;/b&gt; &lt;br&gt;&lt;ul&gt;&lt;li&gt;Batch Processing&lt;/li&gt;&lt;li&gt;Full Load&lt;/li&gt;&lt;li&gt;Truncate &amp;amp; Insert&lt;/li&gt;&lt;/ul&gt;&lt;div&gt;&lt;b&gt;Transformations:&lt;/b&gt;&lt;/div&gt;&lt;div&gt;&lt;ul&gt;&lt;li&gt;Data Cleansing&lt;/li&gt;&lt;li&gt;Data Standardization&lt;/li&gt;&lt;li&gt;Data Normalization&lt;/li&gt;&lt;li&gt;Derived Columns&lt;/li&gt;&lt;li&gt;Data Enrichment&lt;/li&gt;&lt;/ul&gt;&lt;/div&gt;&lt;div&gt;&lt;br&gt;&lt;/div&gt;&lt;div&gt;&lt;b&gt;Data Model:&lt;/b&gt; None (as-is)&lt;/div&gt;&lt;/div&gt;" style="text;html=1;align=left;verticalAlign=middle;whiteSpace=wrap;rounded=0;fontSize=12;" vertex="1" parent="1">
          <mxGeometry x="516" y="580" width="148" height="30" as="geometry" />
        </mxCell>
        <mxCell id="j4TLrGQaL5G3EZcK_6Gp-43" value="&lt;font&gt;&lt;b&gt;Object Type:&lt;/b&gt; Tables&lt;/font&gt;&lt;div&gt;&lt;br&gt;&lt;/div&gt;&lt;div&gt;No&lt;b&gt; Load&lt;/b&gt;&lt;/div&gt;&lt;div&gt;&lt;b&gt;&lt;br&gt;&lt;/b&gt;&lt;div&gt;&lt;b&gt;Transformations:&lt;/b&gt;&lt;/div&gt;&lt;div&gt;&lt;ul&gt;&lt;li&gt;Data Aggregations&lt;/li&gt;&lt;li&gt;Aggregations&lt;/li&gt;&lt;li&gt;Business Logics&lt;/li&gt;&lt;/ul&gt;&lt;/div&gt;&lt;div&gt;&lt;br&gt;&lt;/div&gt;&lt;div&gt;&lt;b&gt;Data Model:&lt;/b&gt;&amp;nbsp;&lt;/div&gt;&lt;/div&gt;&lt;div&gt;&lt;ul&gt;&lt;li&gt;Star Schema&lt;/li&gt;&lt;li&gt;Flat Table&lt;/li&gt;&lt;li&gt;AggregatedTable&lt;/li&gt;&lt;/ul&gt;&lt;/div&gt;" style="text;html=1;align=left;verticalAlign=middle;whiteSpace=wrap;rounded=0;fontSize=12;" vertex="1" parent="1">
          <mxGeometry x="736" y="560" width="150" height="30" as="geometry" />
        </mxCell>
        <mxCell id="j4TLrGQaL5G3EZcK_6Gp-46" value="" style="image;aspect=fixed;html=1;points=[];align=center;fontSize=12;image=img/lib/azure2/power_platform/PowerBI.svg;" vertex="1" parent="1">
          <mxGeometry x="1026.25" y="300" width="37.5" height="50" as="geometry" />
        </mxCell>
        <mxCell id="j4TLrGQaL5G3EZcK_6Gp-47" value="" style="shadow=0;dashed=0;html=1;strokeColor=none;fillColor=#4495D1;labelPosition=center;verticalLabelPosition=bottom;verticalAlign=top;align=center;outlineConnect=0;shape=mxgraph.veeam.magnifying_glass;pointerEvents=1;" vertex="1" parent="1">
          <mxGeometry x="1018" y="425" width="55.2" height="54.4" as="geometry" />
        </mxCell>
        <mxCell id="j4TLrGQaL5G3EZcK_6Gp-48" value="" style="points=[];aspect=fixed;html=1;align=center;shadow=0;dashed=0;fillColor=#FF6A00;strokeColor=none;shape=mxgraph.alibaba_cloud.machine_learning;" vertex="1" parent="1">
          <mxGeometry x="1020.1" y="559.9" width="49.8" height="50.099999999999994" as="geometry" />
        </mxCell>
        <mxCell id="j4TLrGQaL5G3EZcK_6Gp-49" value="BI &amp;amp; Reporting" style="text;html=1;align=center;verticalAlign=middle;whiteSpace=wrap;rounded=0;fontSize=15;" vertex="1" parent="1">
          <mxGeometry x="970.9" y="350" width="160" height="30" as="geometry" />
        </mxCell>
        <mxCell id="j4TLrGQaL5G3EZcK_6Gp-50" value="Ad-Hoc SQL Queries" style="text;html=1;align=center;verticalAlign=middle;whiteSpace=wrap;rounded=0;fontSize=15;" vertex="1" parent="1">
          <mxGeometry x="976.05" y="500" width="139.1" height="30" as="geometry" />
        </mxCell>
        <mxCell id="j4TLrGQaL5G3EZcK_6Gp-51" value="Machine Learning" style="text;html=1;align=center;verticalAlign=middle;whiteSpace=wrap;rounded=0;fontSize=15;" vertex="1" parent="1">
          <mxGeometry x="981.35" y="630" width="139.1" height="30" as="geometry" />
        </mxCell>
        <mxCell id="j4TLrGQaL5G3EZcK_6Gp-52" value="" style="sketch=0;outlineConnect=0;fontColor=#232F3E;gradientColor=none;fillColor=#C925D1;strokeColor=none;dashed=0;verticalLabelPosition=bottom;verticalAlign=top;align=center;html=1;fontSize=12;fontStyle=0;aspect=fixed;pointerEvents=1;shape=mxgraph.aws4.rds_sql_server_instance;" vertex="1" parent="1">
          <mxGeometry x="250" y="131" width="48" height="48" as="geometry" />
        </mxCell>
      </root>
    </mxGraphModel>
  </diagram>
</mxfile>
